<mxfile host="65bd71144e">
    <diagram id="5rb9Ykrv5yhetWdoba9d" name="mng">
        <mxGraphModel dx="764" dy="327" grid="1" gridSize="10" guides="1" tooltips="1" connect="1" arrows="1" fold="1" page="1" pageScale="1" pageWidth="850" pageHeight="1100" math="0" shadow="0">
            <root>
                <mxCell id="0"/>
                <mxCell id="1" parent="0"/>
                <mxCell id="2" value="mafazaa/_mafazaa/mng" style="points=[[0,0],[0.25,0],[0.5,0],[0.75,0],[1,0],[1,0.25],[1,0.5],[1,0.75],[1,1],[0.75,1],[0.5,1],[0.25,1],[0,1],[0,0.75],[0,0.5],[0,0.25]];outlineConnect=0;gradientColor=none;html=1;whiteSpace=wrap;fontSize=11;fontStyle=0;container=1;pointerEvents=0;collapsible=0;recursiveResize=0;shape=mxgraph.aws4.group;grIcon=mxgraph.aws4.group_aws_cloud_alt;strokeColor=#232F3E;fillColor=none;verticalAlign=top;align=left;spacingLeft=30;fontColor=#232F3E;dashed=0;" parent="1" vertex="1">
                    <mxGeometry x="220" y="420" width="320" height="420" as="geometry"/>
                </mxCell>
                <mxCell id="3" value="Middle East (Bahrain)&lt;div data--h-bstatus=&quot;0OBSERVED&quot;&gt;me-south-1&lt;/div&gt;" style="points=[[0,0],[0.25,0],[0.5,0],[0.75,0],[1,0],[1,0.25],[1,0.5],[1,0.75],[1,1],[0.75,1],[0.5,1],[0.25,1],[0,1],[0,0.75],[0,0.5],[0,0.25]];outlineConnect=0;gradientColor=none;html=1;whiteSpace=wrap;fontSize=11;fontStyle=0;container=1;pointerEvents=0;collapsible=0;recursiveResize=0;shape=mxgraph.aws4.group;grIcon=mxgraph.aws4.group_region;strokeColor=#00A4A6;fillColor=none;verticalAlign=top;align=left;spacingLeft=30;fontColor=#147EBA;dashed=1;" parent="2" vertex="1">
                    <mxGeometry x="20" y="50" width="290" height="360" as="geometry"/>
                </mxCell>
                <mxCell id="4" value="me-south-1a" style="fillColor=none;strokeColor=#147EBA;dashed=1;verticalAlign=top;fontStyle=0;fontColor=#147EBA;whiteSpace=wrap;html=1;" parent="3" vertex="1">
                    <mxGeometry x="10" y="50" width="270" height="300" as="geometry"/>
                </mxCell>
                <mxCell id="5" value="mng-vpc&lt;div&gt;10.0.0.0/16&lt;/div&gt;" style="points=[[0,0],[0.25,0],[0.5,0],[0.75,0],[1,0],[1,0.25],[1,0.5],[1,0.75],[1,1],[0.75,1],[0.5,1],[0.25,1],[0,1],[0,0.75],[0,0.5],[0,0.25]];outlineConnect=0;gradientColor=none;html=1;whiteSpace=wrap;fontSize=12;fontStyle=0;container=1;pointerEvents=0;collapsible=0;recursiveResize=0;shape=mxgraph.aws4.group;grIcon=mxgraph.aws4.group_vpc2;strokeColor=#8C4FFF;fillColor=none;verticalAlign=top;align=left;spacingLeft=30;fontColor=#AAB7B8;dashed=0;" parent="3" vertex="1">
                    <mxGeometry x="20" y="86" width="230" height="254" as="geometry"/>
                </mxCell>
                <mxCell id="7" value="public&lt;div&gt;10.0.0.0/24&lt;/div&gt;" style="points=[[0,0],[0.25,0],[0.5,0],[0.75,0],[1,0],[1,0.25],[1,0.5],[1,0.75],[1,1],[0.75,1],[0.5,1],[0.25,1],[0,1],[0,0.75],[0,0.5],[0,0.25]];outlineConnect=0;gradientColor=none;html=1;whiteSpace=wrap;fontSize=12;fontStyle=0;container=1;pointerEvents=0;collapsible=0;recursiveResize=0;shape=mxgraph.aws4.group;grIcon=mxgraph.aws4.group_security_group;grStroke=0;strokeColor=#7AA116;fillColor=#F2F6E8;verticalAlign=top;align=left;spacingLeft=30;fontColor=#248814;dashed=0;" parent="3" vertex="1">
                    <mxGeometry x="40" y="140" width="190" height="190" as="geometry"/>
                </mxCell>
                <mxCell id="8" value="mng-server-sg" style="fillColor=none;strokeColor=#DD3522;verticalAlign=top;fontStyle=0;fontColor=#DD3522;whiteSpace=wrap;html=1;" parent="7" vertex="1">
                    <mxGeometry x="30" y="50" width="130" height="120" as="geometry"/>
                </mxCell>
                <mxCell id="121" value="mng-instance&lt;div&gt;10.0.0.10&lt;/div&gt;" style="sketch=0;outlineConnect=0;fontColor=#232F3E;gradientColor=none;fillColor=#ED7100;strokeColor=none;dashed=0;verticalLabelPosition=bottom;verticalAlign=top;align=center;html=1;fontSize=12;fontStyle=0;aspect=fixed;pointerEvents=1;shape=mxgraph.aws4.instance2;" parent="7" vertex="1">
                    <mxGeometry x="69" y="80" width="48" height="48" as="geometry"/>
                </mxCell>
                <mxCell id="34" value="MNG AWS Diagram" style="text;html=1;align=center;verticalAlign=middle;resizable=0;points=[];autosize=1;strokeColor=none;fillColor=none;fontSize=19;fontStyle=1" parent="1" vertex="1">
                    <mxGeometry x="290" y="360" width="190" height="40" as="geometry"/>
                </mxCell>
                <mxCell id="35" value="" style="group" parent="1" vertex="1" connectable="0">
                    <mxGeometry x="130" y="80" width="450" height="190" as="geometry"/>
                </mxCell>
                <mxCell id="36" value="" style="rounded=0;whiteSpace=wrap;html=1;" parent="35" vertex="1">
                    <mxGeometry width="450" height="190" as="geometry"/>
                </mxCell>
                <mxCell id="37" value="MNG Requirements" style="text;html=1;align=center;verticalAlign=middle;whiteSpace=wrap;rounded=0;fontSize=12;fontStyle=1" parent="35" vertex="1">
                    <mxGeometry x="135" y="10" width="180" height="30" as="geometry"/>
                </mxCell>
                <mxCell id="38" value="1. collect logs and metrics from mafazaa different resources" style="text;html=1;align=left;verticalAlign=middle;whiteSpace=wrap;rounded=0;fontSize=12;" parent="35" vertex="1">
                    <mxGeometry x="10" y="80" width="180" height="60" as="geometry"/>
                </mxCell>
                <mxCell id="39" value="Functional r&lt;span style=&quot;background-color: transparent; color: light-dark(rgb(0, 0, 0), rgb(255, 255, 255));&quot; data--h-bstatus=&quot;0OBSERVED&quot;&gt;equirements&lt;/span&gt;" style="text;html=1;align=left;verticalAlign=middle;whiteSpace=wrap;rounded=0;fontSize=12;fontStyle=1" parent="35" vertex="1">
                    <mxGeometry x="10" y="50" width="180" height="30" as="geometry"/>
                </mxCell>
                <mxCell id="40" value="&lt;h1 data--h-bstatus=&quot;0OBSERVED&quot; style=&quot;margin-top: 0px;&quot;&gt;&lt;span data--h-bstatus=&quot;0OBSERVED&quot; style=&quot;background-color: transparent; color: light-dark(rgb(0, 0, 0), rgb(255, 255, 255));&quot;&gt;&lt;font data--h-bstatus=&quot;0OBSERVED&quot; style=&quot;font-size: 12px;&quot;&gt;Non-functional requirements&lt;/font&gt;&lt;/span&gt;&lt;/h1&gt;&lt;h1 data--h-bstatus=&quot;0OBSERVED&quot; style=&quot;margin-top: 0px; line-height: 0%;&quot;&gt;&lt;span data--h-bstatus=&quot;0OBSERVED&quot; style=&quot;font-weight: 400;&quot;&gt;&lt;font data--h-bstatus=&quot;0OBSERVED&quot; style=&quot;font-size: 11px;&quot;&gt;1. scalability: doesn&#39;t matter&lt;/font&gt;&lt;/span&gt;&lt;/h1&gt;&lt;h1 data--h-bstatus=&quot;0OBSERVED&quot; style=&quot;margin-top: 0px; line-height: 0%;&quot;&gt;&lt;span data--h-bstatus=&quot;0OBSERVED&quot; style=&quot;background-color: transparent; color: light-dark(rgb(0, 0, 0), rgb(255, 255, 255)); font-weight: 400;&quot;&gt;&lt;font data--h-bstatus=&quot;0OBSERVED&quot; style=&quot;font-size: 11px;&quot;&gt;2. availability: should be always available&lt;/font&gt;&lt;/span&gt;&lt;/h1&gt;&lt;h1 data--h-bstatus=&quot;0OBSERVED&quot; style=&quot;margin-top: 0px; line-height: 0%;&quot;&gt;&lt;span data--h-bstatus=&quot;0OBSERVED&quot; style=&quot;background-color: transparent; color: light-dark(rgb(0, 0, 0), rgb(255, 255, 255)); font-weight: 400;&quot;&gt;&lt;font data--h-bstatus=&quot;0OBSERVED&quot; style=&quot;font-size: 11px;&quot;&gt;3. latency: fast, can&#39;t slow down other apps&lt;/font&gt;&lt;/span&gt;&lt;/h1&gt;&lt;h1 data--h-bstatus=&quot;0OBSERVED&quot; style=&quot;margin-top: 0px; line-height: 0%;&quot;&gt;&lt;span data--h-bstatus=&quot;0OBSERVED&quot; style=&quot;background-color: transparent; color: light-dark(rgb(0, 0, 0), rgb(255, 255, 255)); font-weight: normal;&quot;&gt;&lt;font data--h-bstatus=&quot;0OBSERVED&quot; style=&quot;font-size: 11px;&quot;&gt;4. consistency: all data should be synced&lt;/font&gt;&lt;/span&gt;&lt;/h1&gt;&lt;div data--h-bstatus=&quot;0OBSERVED&quot; style=&quot;line-height: 0%;&quot;&gt;&lt;span data--h-bstatus=&quot;0OBSERVED&quot; style=&quot;background-color: transparent; color: light-dark(rgb(0, 0, 0), rgb(255, 255, 255));&quot;&gt;&lt;font data--h-bstatus=&quot;0OBSERVED&quot; style=&quot;font-size: 11px;&quot;&gt;5. calculations: medium&lt;/font&gt;&lt;/span&gt;&lt;/div&gt;" style="text;html=1;whiteSpace=wrap;overflow=hidden;rounded=0;" parent="35" vertex="1">
                    <mxGeometry x="210" y="30" width="230" height="150" as="geometry"/>
                </mxCell>
                <mxCell id="61" value="Security group" style="fillColor=none;strokeColor=#DD3522;verticalAlign=top;fontStyle=0;fontColor=#DD3522;whiteSpace=wrap;html=1;" parent="1" vertex="1">
                    <mxGeometry x="26" y="429" width="87" height="40" as="geometry"/>
                </mxCell>
                <mxCell id="62" value="Security group" style="text;html=1;align=center;verticalAlign=middle;resizable=0;points=[];autosize=1;strokeColor=none;fillColor=none;" parent="1" vertex="1">
                    <mxGeometry x="120" y="432" width="100" height="30" as="geometry"/>
                </mxCell>
                <mxCell id="65" value="Public subnet" style="points=[[0,0],[0.25,0],[0.5,0],[0.75,0],[1,0],[1,0.25],[1,0.5],[1,0.75],[1,1],[0.75,1],[0.5,1],[0.25,1],[0,1],[0,0.75],[0,0.5],[0,0.25]];outlineConnect=0;gradientColor=none;html=1;whiteSpace=wrap;fontSize=12;fontStyle=0;container=1;pointerEvents=0;collapsible=0;recursiveResize=0;shape=mxgraph.aws4.group;grIcon=mxgraph.aws4.group_security_group;grStroke=0;strokeColor=#7AA116;fillColor=#F2F6E8;verticalAlign=top;align=left;spacingLeft=30;fontColor=#248814;dashed=0;" parent="1" vertex="1">
                    <mxGeometry x="26" y="489" width="103" height="50" as="geometry"/>
                </mxCell>
                <mxCell id="67" value="Internet gateway" style="text;html=1;align=center;verticalAlign=middle;resizable=0;points=[];autosize=1;strokeColor=none;fillColor=none;" parent="1" vertex="1">
                    <mxGeometry x="93" y="578" width="110" height="30" as="geometry"/>
                </mxCell>
                <mxCell id="68" value="" style="sketch=0;outlineConnect=0;fontColor=#232F3E;gradientColor=none;fillColor=#8C4FFF;strokeColor=none;dashed=0;verticalLabelPosition=bottom;verticalAlign=top;align=center;html=1;fontSize=12;fontStyle=0;aspect=fixed;pointerEvents=1;shape=mxgraph.aws4.internet_gateway;" parent="1" vertex="1">
                    <mxGeometry x="30.480000000000018" y="573" width="40" height="40" as="geometry"/>
                </mxCell>
                <mxCell id="122" value="" style="sketch=0;outlineConnect=0;fontColor=#232F3E;gradientColor=none;fillColor=#ED7100;strokeColor=none;dashed=0;verticalLabelPosition=bottom;verticalAlign=top;align=center;html=1;fontSize=12;fontStyle=0;aspect=fixed;pointerEvents=1;shape=mxgraph.aws4.elastic_ip_address;" parent="1" vertex="1">
                    <mxGeometry x="30" y="646" width="48" height="20" as="geometry"/>
                </mxCell>
                <mxCell id="123" value="elastic ip" style="text;html=1;align=center;verticalAlign=middle;resizable=0;points=[];autosize=1;strokeColor=none;fillColor=none;" parent="1" vertex="1">
                    <mxGeometry x="106" y="641" width="70" height="30" as="geometry"/>
                </mxCell>
                <mxCell id="32" value="" style="sketch=0;outlineConnect=0;fontColor=#232F3E;gradientColor=none;fillColor=#8C4FFF;strokeColor=none;dashed=0;verticalLabelPosition=bottom;verticalAlign=top;align=center;html=1;fontSize=12;fontStyle=0;aspect=fixed;pointerEvents=1;shape=mxgraph.aws4.internet_gateway;" parent="1" vertex="1">
                    <mxGeometry x="470" y="748" width="40" height="40" as="geometry"/>
                </mxCell>
                <mxCell id="125" value="" style="sketch=0;outlineConnect=0;fontColor=#232F3E;gradientColor=none;fillColor=#ED7100;strokeColor=none;dashed=0;verticalLabelPosition=bottom;verticalAlign=top;align=center;html=1;fontSize=12;fontStyle=0;aspect=fixed;pointerEvents=1;shape=mxgraph.aws4.instance2;" parent="1" vertex="1">
                    <mxGeometry x="30" y="688.5" width="48" height="48" as="geometry"/>
                </mxCell>
                <mxCell id="128" value="ec2 instance" style="text;html=1;align=center;verticalAlign=middle;resizable=0;points=[];autosize=1;strokeColor=none;fillColor=none;" parent="1" vertex="1">
                    <mxGeometry x="96" y="706.5" width="90" height="30" as="geometry"/>
                </mxCell>
                <mxCell id="131" value="Allowed people" style="verticalLabelPosition=bottom;aspect=fixed;html=1;shape=mxgraph.salesforce.employees2;" parent="1" vertex="1">
                    <mxGeometry x="630.5" y="720" width="60" height="60" as="geometry"/>
                </mxCell>
                <mxCell id="132" value="other apps and resources" style="outlineConnect=0;dashed=0;verticalLabelPosition=bottom;verticalAlign=top;align=center;html=1;shape=mxgraph.aws3.resources;fillColor=#759C3E;gradientColor=none;" parent="1" vertex="1">
                    <mxGeometry x="623" y="850" width="67.5" height="79.5" as="geometry"/>
                </mxCell>
                <mxCell id="137" style="edgeStyle=none;html=1;" parent="1" source="133" target="131" edge="1">
                    <mxGeometry relative="1" as="geometry">
                        <Array as="points">
                            <mxPoint x="590" y="820"/>
                            <mxPoint x="590" y="750"/>
                        </Array>
                    </mxGeometry>
                </mxCell>
                <mxCell id="138" style="edgeStyle=none;html=1;" parent="1" source="133" target="132" edge="1">
                    <mxGeometry relative="1" as="geometry">
                        <Array as="points">
                            <mxPoint x="590" y="820"/>
                            <mxPoint x="590" y="890"/>
                        </Array>
                    </mxGeometry>
                </mxCell>
                <mxCell id="133" value="eip" style="sketch=0;outlineConnect=0;fontColor=#232F3E;gradientColor=none;fillColor=#ED7100;strokeColor=none;dashed=0;verticalLabelPosition=bottom;verticalAlign=top;align=center;html=1;fontSize=12;fontStyle=0;aspect=fixed;pointerEvents=1;shape=mxgraph.aws4.elastic_ip_address;" parent="1" vertex="1">
                    <mxGeometry x="520" y="810" width="48" height="20" as="geometry"/>
                </mxCell>
                <mxCell id="134" style="edgeStyle=none;html=1;" parent="1" source="121" target="133" edge="1">
                    <mxGeometry relative="1" as="geometry">
                        <Array as="points">
                            <mxPoint x="420" y="714"/>
                            <mxPoint x="420" y="820"/>
                        </Array>
                    </mxGeometry>
                </mxCell>
            </root>
        </mxGraphModel>
    </diagram>
</mxfile>